<mxfile host="app.diagrams.net" agent="Mozilla/5.0 (Windows NT 10.0; Win64; x64) AppleWebKit/537.36 (KHTML, like Gecko) Chrome/141.0.0.0 Safari/537.36" version="28.2.7">
  <diagram name="Page-1" id="WDIW8pUM6SgQWyEJip3x">
    <mxGraphModel dx="786" dy="417" grid="1" gridSize="10" guides="1" tooltips="1" connect="1" arrows="1" fold="1" page="1" pageScale="1" pageWidth="827" pageHeight="1169" math="0" shadow="0">
      <root>
        <mxCell id="0" />
        <mxCell id="1" parent="0" />
        <mxCell id="9S631iGWxeNeRSICMKRO-4" style="edgeStyle=orthogonalEdgeStyle;rounded=0;orthogonalLoop=1;jettySize=auto;html=1;entryX=0;entryY=0.5;entryDx=0;entryDy=0;endArrow=none;endFill=0;" parent="1" source="9S631iGWxeNeRSICMKRO-1" target="9S631iGWxeNeRSICMKRO-2" edge="1">
          <mxGeometry relative="1" as="geometry" />
        </mxCell>
        <mxCell id="9S631iGWxeNeRSICMKRO-26" value="0, n" style="edgeLabel;html=1;align=center;verticalAlign=middle;resizable=0;points=[];fontSize=15;" parent="9S631iGWxeNeRSICMKRO-4" vertex="1" connectable="0">
          <mxGeometry x="0.019" y="-3" relative="1" as="geometry">
            <mxPoint as="offset" />
          </mxGeometry>
        </mxCell>
        <mxCell id="9S631iGWxeNeRSICMKRO-8" style="edgeStyle=orthogonalEdgeStyle;rounded=0;orthogonalLoop=1;jettySize=auto;html=1;entryX=0.5;entryY=0;entryDx=0;entryDy=0;endArrow=none;endFill=0;" parent="1" source="9S631iGWxeNeRSICMKRO-1" target="9S631iGWxeNeRSICMKRO-7" edge="1">
          <mxGeometry relative="1" as="geometry" />
        </mxCell>
        <mxCell id="9S631iGWxeNeRSICMKRO-31" value="1, n" style="edgeLabel;html=1;align=center;verticalAlign=middle;resizable=0;points=[];fontSize=15;" parent="9S631iGWxeNeRSICMKRO-8" vertex="1" connectable="0">
          <mxGeometry x="-0.2643" y="2" relative="1" as="geometry">
            <mxPoint as="offset" />
          </mxGeometry>
        </mxCell>
        <mxCell id="9S631iGWxeNeRSICMKRO-1" value="Recette" style="swimlane;whiteSpace=wrap;html=1;" parent="1" vertex="1">
          <mxGeometry x="60" y="430" width="200" height="200" as="geometry" />
        </mxCell>
        <mxCell id="9S631iGWxeNeRSICMKRO-16" value="Titre" style="text;html=1;whiteSpace=wrap;strokeColor=none;fillColor=none;align=left;verticalAlign=middle;rounded=0;fontSize=17;fontStyle=1" parent="9S631iGWxeNeRSICMKRO-1" vertex="1">
          <mxGeometry x="20" y="58" width="60" height="30" as="geometry" />
        </mxCell>
        <mxCell id="9S631iGWxeNeRSICMKRO-17" value="Slug" style="text;html=1;whiteSpace=wrap;strokeColor=none;fillColor=none;align=left;verticalAlign=middle;rounded=0;fontSize=17;fontStyle=1" parent="9S631iGWxeNeRSICMKRO-1" vertex="1">
          <mxGeometry x="20" y="91" width="60" height="30" as="geometry" />
        </mxCell>
        <mxCell id="9S631iGWxeNeRSICMKRO-18" value="Durée" style="text;html=1;whiteSpace=wrap;strokeColor=none;fillColor=none;align=left;verticalAlign=middle;rounded=0;fontSize=17;fontStyle=1" parent="9S631iGWxeNeRSICMKRO-1" vertex="1">
          <mxGeometry x="20" y="155" width="60" height="30" as="geometry" />
        </mxCell>
        <mxCell id="9S631iGWxeNeRSICMKRO-19" value="Date" style="text;html=1;whiteSpace=wrap;strokeColor=none;fillColor=none;align=left;verticalAlign=middle;rounded=0;fontSize=17;fontStyle=1" parent="9S631iGWxeNeRSICMKRO-1" vertex="1">
          <mxGeometry x="20" y="120" width="60" height="30" as="geometry" />
        </mxCell>
        <mxCell id="9S631iGWxeNeRSICMKRO-33" value="id" style="text;html=1;whiteSpace=wrap;strokeColor=none;fillColor=none;align=left;verticalAlign=middle;rounded=0;fontSize=17;fontStyle=1" parent="9S631iGWxeNeRSICMKRO-1" vertex="1">
          <mxGeometry x="21" y="29" width="60" height="30" as="geometry" />
        </mxCell>
        <mxCell id="9S631iGWxeNeRSICMKRO-5" style="edgeStyle=orthogonalEdgeStyle;rounded=0;orthogonalLoop=1;jettySize=auto;html=1;entryX=0;entryY=0.5;entryDx=0;entryDy=0;endArrow=none;endFill=0;" parent="1" source="9S631iGWxeNeRSICMKRO-2" target="9S631iGWxeNeRSICMKRO-3" edge="1">
          <mxGeometry relative="1" as="geometry" />
        </mxCell>
        <mxCell id="9S631iGWxeNeRSICMKRO-27" value="0, n" style="edgeLabel;html=1;align=center;verticalAlign=middle;resizable=0;points=[];fontSize=15;" parent="9S631iGWxeNeRSICMKRO-5" vertex="1" connectable="0">
          <mxGeometry x="-0.1036" relative="1" as="geometry">
            <mxPoint as="offset" />
          </mxGeometry>
        </mxCell>
        <mxCell id="9S631iGWxeNeRSICMKRO-2" value="Appartient" style="swimlane;whiteSpace=wrap;html=1;rounded=1;" parent="1" vertex="1">
          <mxGeometry x="350" y="490" width="150" height="80" as="geometry" />
        </mxCell>
        <mxCell id="9S631iGWxeNeRSICMKRO-3" value="Categorie" style="swimlane;whiteSpace=wrap;html=1;" parent="1" vertex="1">
          <mxGeometry x="580" y="430" width="200" height="200" as="geometry" />
        </mxCell>
        <mxCell id="9S631iGWxeNeRSICMKRO-23" value="id" style="text;html=1;whiteSpace=wrap;strokeColor=none;fillColor=none;align=left;verticalAlign=middle;rounded=0;fontSize=17;fontStyle=1" parent="9S631iGWxeNeRSICMKRO-3" vertex="1">
          <mxGeometry x="22" y="40" width="60" height="30" as="geometry" />
        </mxCell>
        <mxCell id="9S631iGWxeNeRSICMKRO-35" value="Titre" style="text;html=1;whiteSpace=wrap;strokeColor=none;fillColor=none;align=left;verticalAlign=middle;rounded=0;fontSize=17;fontStyle=1" parent="9S631iGWxeNeRSICMKRO-3" vertex="1">
          <mxGeometry x="21" y="67" width="60" height="30" as="geometry" />
        </mxCell>
        <mxCell id="9S631iGWxeNeRSICMKRO-6" value="Ingredient" style="swimlane;whiteSpace=wrap;html=1;" parent="1" vertex="1">
          <mxGeometry x="60" y="810" width="200" height="200" as="geometry" />
        </mxCell>
        <mxCell id="9S631iGWxeNeRSICMKRO-20" value="id" style="text;html=1;whiteSpace=wrap;strokeColor=none;fillColor=none;align=left;verticalAlign=middle;rounded=0;fontSize=17;fontStyle=1" parent="9S631iGWxeNeRSICMKRO-6" vertex="1">
          <mxGeometry x="25" y="40" width="60" height="30" as="geometry" />
        </mxCell>
        <mxCell id="9S631iGWxeNeRSICMKRO-36" value="Nom" style="text;html=1;whiteSpace=wrap;strokeColor=none;fillColor=none;align=left;verticalAlign=middle;rounded=0;fontSize=17;fontStyle=1" parent="9S631iGWxeNeRSICMKRO-6" vertex="1">
          <mxGeometry x="25" y="68" width="60" height="30" as="geometry" />
        </mxCell>
        <mxCell id="9S631iGWxeNeRSICMKRO-9" style="edgeStyle=orthogonalEdgeStyle;rounded=0;orthogonalLoop=1;jettySize=auto;html=1;entryX=0.5;entryY=0;entryDx=0;entryDy=0;endArrow=none;endFill=0;" parent="1" source="9S631iGWxeNeRSICMKRO-7" target="9S631iGWxeNeRSICMKRO-6" edge="1">
          <mxGeometry relative="1" as="geometry" />
        </mxCell>
        <mxCell id="9S631iGWxeNeRSICMKRO-32" value="0, n" style="edgeLabel;html=1;align=center;verticalAlign=middle;resizable=0;points=[];fontSize=15;" parent="9S631iGWxeNeRSICMKRO-9" vertex="1" connectable="0">
          <mxGeometry x="-0.1929" relative="1" as="geometry">
            <mxPoint as="offset" />
          </mxGeometry>
        </mxCell>
        <mxCell id="9S631iGWxeNeRSICMKRO-7" value="est composé de" style="swimlane;whiteSpace=wrap;html=1;rounded=1;" parent="1" vertex="1">
          <mxGeometry x="85" y="670" width="150" height="80" as="geometry" />
        </mxCell>
        <mxCell id="9S631iGWxeNeRSICMKRO-21" value="Quantité" style="text;html=1;whiteSpace=wrap;strokeColor=none;fillColor=none;align=left;verticalAlign=middle;rounded=0;fontSize=14;fontStyle=1" parent="9S631iGWxeNeRSICMKRO-7" vertex="1">
          <mxGeometry x="25" y="24" width="60" height="30" as="geometry" />
        </mxCell>
        <mxCell id="9S631iGWxeNeRSICMKRO-22" value="Unité" style="text;html=1;whiteSpace=wrap;strokeColor=none;fillColor=none;align=left;verticalAlign=middle;rounded=0;fontSize=14;fontStyle=1" parent="9S631iGWxeNeRSICMKRO-7" vertex="1">
          <mxGeometry x="25" y="50" width="60" height="30" as="geometry" />
        </mxCell>
        <mxCell id="9S631iGWxeNeRSICMKRO-12" style="edgeStyle=orthogonalEdgeStyle;rounded=0;orthogonalLoop=1;jettySize=auto;html=1;entryX=0.5;entryY=0;entryDx=0;entryDy=0;endArrow=none;endFill=0;" parent="1" source="9S631iGWxeNeRSICMKRO-10" target="9S631iGWxeNeRSICMKRO-11" edge="1">
          <mxGeometry relative="1" as="geometry" />
        </mxCell>
        <mxCell id="9S631iGWxeNeRSICMKRO-28" value="0, n" style="edgeLabel;html=1;align=center;verticalAlign=middle;resizable=0;points=[];fontSize=15;" parent="9S631iGWxeNeRSICMKRO-12" vertex="1" connectable="0">
          <mxGeometry x="-0.2643" y="-1" relative="1" as="geometry">
            <mxPoint as="offset" />
          </mxGeometry>
        </mxCell>
        <mxCell id="9S631iGWxeNeRSICMKRO-10" value="Utilisateur" style="swimlane;whiteSpace=wrap;html=1;startSize=23;" parent="1" vertex="1">
          <mxGeometry x="60" y="90" width="200" height="200" as="geometry" />
        </mxCell>
        <mxCell id="9S631iGWxeNeRSICMKRO-14" value="Pseudo" style="text;html=1;whiteSpace=wrap;strokeColor=none;fillColor=none;align=left;verticalAlign=middle;rounded=0;fontSize=17;fontStyle=1" parent="9S631iGWxeNeRSICMKRO-10" vertex="1">
          <mxGeometry x="17" y="59" width="60" height="30" as="geometry" />
        </mxCell>
        <mxCell id="9S631iGWxeNeRSICMKRO-15" value="Email" style="text;html=1;whiteSpace=wrap;strokeColor=none;fillColor=none;align=left;verticalAlign=middle;rounded=0;fontSize=17;fontStyle=1" parent="9S631iGWxeNeRSICMKRO-10" vertex="1">
          <mxGeometry x="17" y="89" width="60" height="30" as="geometry" />
        </mxCell>
        <mxCell id="9S631iGWxeNeRSICMKRO-34" value="id" style="text;html=1;whiteSpace=wrap;strokeColor=none;fillColor=none;align=left;verticalAlign=middle;rounded=0;fontSize=17;fontStyle=1" parent="9S631iGWxeNeRSICMKRO-10" vertex="1">
          <mxGeometry x="16" y="31" width="60" height="30" as="geometry" />
        </mxCell>
        <mxCell id="9S631iGWxeNeRSICMKRO-13" style="edgeStyle=orthogonalEdgeStyle;rounded=0;orthogonalLoop=1;jettySize=auto;html=1;entryX=0.5;entryY=0;entryDx=0;entryDy=0;endArrow=none;endFill=0;" parent="1" source="9S631iGWxeNeRSICMKRO-11" target="9S631iGWxeNeRSICMKRO-1" edge="1">
          <mxGeometry relative="1" as="geometry" />
        </mxCell>
        <mxCell id="9S631iGWxeNeRSICMKRO-30" value="1, 1" style="edgeLabel;html=1;align=center;verticalAlign=middle;resizable=0;points=[];fontSize=15;" parent="9S631iGWxeNeRSICMKRO-13" vertex="1" connectable="0">
          <mxGeometry x="-0.1929" relative="1" as="geometry">
            <mxPoint as="offset" />
          </mxGeometry>
        </mxCell>
        <mxCell id="9S631iGWxeNeRSICMKRO-11" value="créé" style="swimlane;whiteSpace=wrap;html=1;rounded=1;" parent="1" vertex="1">
          <mxGeometry x="110" y="330" width="100" height="60" as="geometry" />
        </mxCell>
        <mxCell id="9S631iGWxeNeRSICMKRO-37" value="users" style="swimlane;whiteSpace=wrap;html=1;startSize=23;" parent="1" vertex="1">
          <mxGeometry x="920" y="20" width="200" height="200" as="geometry" />
        </mxCell>
        <mxCell id="9S631iGWxeNeRSICMKRO-38" value="username" style="text;html=1;whiteSpace=wrap;strokeColor=none;fillColor=none;align=left;verticalAlign=middle;rounded=0;fontSize=17;fontStyle=1" parent="9S631iGWxeNeRSICMKRO-37" vertex="1">
          <mxGeometry x="17" y="59" width="60" height="30" as="geometry" />
        </mxCell>
        <mxCell id="9S631iGWxeNeRSICMKRO-39" value="email" style="text;html=1;whiteSpace=wrap;strokeColor=none;fillColor=none;align=left;verticalAlign=middle;rounded=0;fontSize=17;fontStyle=1" parent="9S631iGWxeNeRSICMKRO-37" vertex="1">
          <mxGeometry x="17" y="89" width="60" height="30" as="geometry" />
        </mxCell>
        <mxCell id="9S631iGWxeNeRSICMKRO-40" value="id" style="text;html=1;whiteSpace=wrap;strokeColor=none;fillColor=none;align=left;verticalAlign=middle;rounded=0;fontSize=17;fontStyle=1" parent="9S631iGWxeNeRSICMKRO-37" vertex="1">
          <mxGeometry x="16" y="31" width="60" height="30" as="geometry" />
        </mxCell>
        <mxCell id="9S631iGWxeNeRSICMKRO-41" value="recipes" style="swimlane;whiteSpace=wrap;html=1;startSize=23;" parent="1" vertex="1">
          <mxGeometry x="905" y="350" width="200" height="230" as="geometry" />
        </mxCell>
        <mxCell id="9S631iGWxeNeRSICMKRO-42" value="title" style="text;html=1;whiteSpace=wrap;strokeColor=none;fillColor=none;align=left;verticalAlign=middle;rounded=0;fontSize=17;fontStyle=1" parent="9S631iGWxeNeRSICMKRO-41" vertex="1">
          <mxGeometry x="20" y="58" width="60" height="30" as="geometry" />
        </mxCell>
        <mxCell id="9S631iGWxeNeRSICMKRO-43" value="slug" style="text;html=1;whiteSpace=wrap;strokeColor=none;fillColor=none;align=left;verticalAlign=middle;rounded=0;fontSize=17;fontStyle=1" parent="9S631iGWxeNeRSICMKRO-41" vertex="1">
          <mxGeometry x="20" y="91" width="60" height="30" as="geometry" />
        </mxCell>
        <mxCell id="9S631iGWxeNeRSICMKRO-44" value="duration" style="text;html=1;whiteSpace=wrap;strokeColor=none;fillColor=none;align=left;verticalAlign=middle;rounded=0;fontSize=17;fontStyle=1" parent="9S631iGWxeNeRSICMKRO-41" vertex="1">
          <mxGeometry x="20" y="155" width="60" height="30" as="geometry" />
        </mxCell>
        <mxCell id="9S631iGWxeNeRSICMKRO-45" value="date" style="text;html=1;whiteSpace=wrap;strokeColor=none;fillColor=none;align=left;verticalAlign=middle;rounded=0;fontSize=17;fontStyle=1" parent="9S631iGWxeNeRSICMKRO-41" vertex="1">
          <mxGeometry x="20" y="120" width="60" height="30" as="geometry" />
        </mxCell>
        <mxCell id="9S631iGWxeNeRSICMKRO-46" value="id" style="text;html=1;whiteSpace=wrap;strokeColor=none;fillColor=none;align=left;verticalAlign=middle;rounded=0;fontSize=17;fontStyle=1" parent="9S631iGWxeNeRSICMKRO-41" vertex="1">
          <mxGeometry x="21" y="29" width="60" height="30" as="geometry" />
        </mxCell>
        <mxCell id="9S631iGWxeNeRSICMKRO-53" value="user_id" style="text;html=1;whiteSpace=wrap;strokeColor=none;fillColor=none;align=left;verticalAlign=middle;rounded=0;fontSize=17;fontStyle=1" parent="9S631iGWxeNeRSICMKRO-41" vertex="1">
          <mxGeometry x="20" y="187" width="60" height="30" as="geometry" />
        </mxCell>
        <mxCell id="9S631iGWxeNeRSICMKRO-47" value="categories" style="swimlane;whiteSpace=wrap;html=1;" parent="1" vertex="1">
          <mxGeometry x="1510" y="365" width="200" height="200" as="geometry" />
        </mxCell>
        <mxCell id="9S631iGWxeNeRSICMKRO-48" value="id" style="text;html=1;whiteSpace=wrap;strokeColor=none;fillColor=none;align=left;verticalAlign=middle;rounded=0;fontSize=17;fontStyle=1" parent="9S631iGWxeNeRSICMKRO-47" vertex="1">
          <mxGeometry x="22" y="40" width="60" height="30" as="geometry" />
        </mxCell>
        <mxCell id="9S631iGWxeNeRSICMKRO-49" value="title" style="text;html=1;whiteSpace=wrap;strokeColor=none;fillColor=none;align=left;verticalAlign=middle;rounded=0;fontSize=17;fontStyle=1" parent="9S631iGWxeNeRSICMKRO-47" vertex="1">
          <mxGeometry x="21" y="67" width="60" height="30" as="geometry" />
        </mxCell>
        <mxCell id="9S631iGWxeNeRSICMKRO-50" value="ingredients" style="swimlane;whiteSpace=wrap;html=1;" parent="1" vertex="1">
          <mxGeometry x="1360" y="680" width="200" height="200" as="geometry" />
        </mxCell>
        <mxCell id="9S631iGWxeNeRSICMKRO-51" value="id" style="text;html=1;whiteSpace=wrap;strokeColor=none;fillColor=none;align=left;verticalAlign=middle;rounded=0;fontSize=17;fontStyle=1" parent="9S631iGWxeNeRSICMKRO-50" vertex="1">
          <mxGeometry x="25" y="40" width="60" height="30" as="geometry" />
        </mxCell>
        <mxCell id="9S631iGWxeNeRSICMKRO-52" value="name" style="text;html=1;whiteSpace=wrap;strokeColor=none;fillColor=none;align=left;verticalAlign=middle;rounded=0;fontSize=17;fontStyle=1" parent="9S631iGWxeNeRSICMKRO-50" vertex="1">
          <mxGeometry x="25" y="68" width="60" height="30" as="geometry" />
        </mxCell>
        <mxCell id="9S631iGWxeNeRSICMKRO-55" style="edgeStyle=orthogonalEdgeStyle;rounded=0;orthogonalLoop=1;jettySize=auto;html=1;entryX=0;entryY=0.5;entryDx=0;entryDy=0;endArrow=none;endFill=0;" parent="1" source="9S631iGWxeNeRSICMKRO-53" target="9S631iGWxeNeRSICMKRO-40" edge="1">
          <mxGeometry relative="1" as="geometry">
            <Array as="points">
              <mxPoint x="860" y="552" />
              <mxPoint x="860" y="66" />
            </Array>
          </mxGeometry>
        </mxCell>
        <mxCell id="9S631iGWxeNeRSICMKRO-56" value="categories_recipes" style="swimlane;whiteSpace=wrap;html=1;" parent="1" vertex="1">
          <mxGeometry x="1250" y="375" width="200" height="115" as="geometry" />
        </mxCell>
        <mxCell id="9S631iGWxeNeRSICMKRO-57" value="recipe_id" style="text;html=1;whiteSpace=wrap;strokeColor=none;fillColor=none;align=left;verticalAlign=middle;rounded=0;fontSize=17;fontStyle=1" parent="9S631iGWxeNeRSICMKRO-56" vertex="1">
          <mxGeometry x="22" y="40" width="60" height="30" as="geometry" />
        </mxCell>
        <mxCell id="9S631iGWxeNeRSICMKRO-58" value="category_id" style="text;html=1;whiteSpace=wrap;strokeColor=none;fillColor=none;align=left;verticalAlign=middle;rounded=0;fontSize=17;fontStyle=1" parent="9S631iGWxeNeRSICMKRO-56" vertex="1">
          <mxGeometry x="21" y="67" width="60" height="30" as="geometry" />
        </mxCell>
        <mxCell id="9S631iGWxeNeRSICMKRO-59" style="edgeStyle=orthogonalEdgeStyle;rounded=0;orthogonalLoop=1;jettySize=auto;html=1;entryX=0;entryY=0.25;entryDx=0;entryDy=0;endArrow=none;endFill=0;" parent="1" target="9S631iGWxeNeRSICMKRO-57" edge="1">
          <mxGeometry relative="1" as="geometry">
            <mxPoint x="970" y="390" as="sourcePoint" />
            <Array as="points">
              <mxPoint x="956" y="390" />
              <mxPoint x="1137" y="390" />
              <mxPoint x="1137" y="423" />
            </Array>
          </mxGeometry>
        </mxCell>
        <mxCell id="9S631iGWxeNeRSICMKRO-60" style="edgeStyle=orthogonalEdgeStyle;rounded=0;orthogonalLoop=1;jettySize=auto;html=1;entryX=0;entryY=0.5;entryDx=0;entryDy=0;endArrow=none;endFill=0;" parent="1" target="9S631iGWxeNeRSICMKRO-48" edge="1">
          <mxGeometry relative="1" as="geometry">
            <mxPoint x="1370" y="457" as="sourcePoint" />
            <Array as="points">
              <mxPoint x="1470" y="457" />
              <mxPoint x="1470" y="420" />
            </Array>
          </mxGeometry>
        </mxCell>
        <mxCell id="9S631iGWxeNeRSICMKRO-61" value="ingredients_recipes" style="swimlane;whiteSpace=wrap;html=1;" parent="1" vertex="1">
          <mxGeometry x="920" y="710" width="200" height="180" as="geometry" />
        </mxCell>
        <mxCell id="9S631iGWxeNeRSICMKRO-62" value="recipe_id" style="text;html=1;whiteSpace=wrap;strokeColor=none;fillColor=none;align=left;verticalAlign=middle;rounded=0;fontSize=17;fontStyle=1" parent="9S631iGWxeNeRSICMKRO-61" vertex="1">
          <mxGeometry x="22" y="40" width="60" height="30" as="geometry" />
        </mxCell>
        <mxCell id="9S631iGWxeNeRSICMKRO-63" value="ingredient_id" style="text;html=1;whiteSpace=wrap;strokeColor=none;fillColor=none;align=left;verticalAlign=middle;rounded=0;fontSize=17;fontStyle=1" parent="9S631iGWxeNeRSICMKRO-61" vertex="1">
          <mxGeometry x="21" y="67" width="60" height="30" as="geometry" />
        </mxCell>
        <mxCell id="9S631iGWxeNeRSICMKRO-66" value="quantity" style="text;html=1;whiteSpace=wrap;strokeColor=none;fillColor=none;align=left;verticalAlign=middle;rounded=0;fontSize=17;fontStyle=1" parent="9S631iGWxeNeRSICMKRO-61" vertex="1">
          <mxGeometry x="22" y="97" width="60" height="30" as="geometry" />
        </mxCell>
        <mxCell id="9S631iGWxeNeRSICMKRO-67" value="unit" style="text;html=1;whiteSpace=wrap;strokeColor=none;fillColor=none;align=left;verticalAlign=middle;rounded=0;fontSize=17;fontStyle=1" parent="9S631iGWxeNeRSICMKRO-61" vertex="1">
          <mxGeometry x="24" y="127" width="60" height="30" as="geometry" />
        </mxCell>
        <mxCell id="9S631iGWxeNeRSICMKRO-64" style="edgeStyle=orthogonalEdgeStyle;rounded=0;orthogonalLoop=1;jettySize=auto;html=1;entryX=0;entryY=0.25;entryDx=0;entryDy=0;endArrow=none;endFill=0;" parent="1" source="9S631iGWxeNeRSICMKRO-46" target="9S631iGWxeNeRSICMKRO-62" edge="1">
          <mxGeometry relative="1" as="geometry">
            <Array as="points">
              <mxPoint x="880" y="394" />
              <mxPoint x="880" y="757" />
            </Array>
          </mxGeometry>
        </mxCell>
        <mxCell id="9S631iGWxeNeRSICMKRO-65" style="edgeStyle=orthogonalEdgeStyle;rounded=0;orthogonalLoop=1;jettySize=auto;html=1;entryX=0;entryY=0.5;entryDx=0;entryDy=0;endArrow=none;endFill=0;" parent="1" target="9S631iGWxeNeRSICMKRO-51" edge="1">
          <mxGeometry relative="1" as="geometry">
            <mxPoint x="1070" y="792" as="sourcePoint" />
          </mxGeometry>
        </mxCell>
      </root>
    </mxGraphModel>
  </diagram>
</mxfile>
